<svg xmlns="http://www.w3.org/2000/svg" xmlns:xlink="http://www.w3.org/1999/xlink" width="130" height="125.762" viewBox="0 0 130 125.762"><defs><clipPath id="a"><rect width="130" height="125.762" fill="none"/></clipPath></defs><g transform="translate(2)"><g transform="translate(-2)" clip-path="url(#a)"><path d="M27.15,93.48a1.914,1.914,0,0,0,3.824,0V73.944l.117,0a16.759,16.759,0,0,0,3.366-.354,2.054,2.054,0,0,0-.079-4.061A2.8,2.8,0,0,1,32.341,68.3c-.932-1.436-.774-3.824-.478-5.448H42.047A11.5,11.5,0,0,0,53.79,51.634V29A11.5,11.5,0,0,0,42.047,17.782H30.974V14.863H40.7a1.829,1.829,0,1,0,0-3.655h-9.73V9.137A5.62,5.62,0,0,1,36.71,3.655h57.1A5.62,5.62,0,0,1,99.55,9.137v2.071H48.862a1.829,1.829,0,1,0,0,3.655H99.55V23.39a1.914,1.914,0,0,0,3.824,0V9.137A9.365,9.365,0,0,0,93.814,0H36.71a9.365,9.365,0,0,0-9.56,9.137v8.645H11.743A11.5,11.5,0,0,0,0,29V51.634A11.5,11.5,0,0,0,11.743,62.857h7.843c.552,4.149,2.134,7.193,4.716,9.064a10.166,10.166,0,0,0,2.848,1.435ZM23.237,60.921A1.877,1.877,0,0,0,21.328,59.2H11.743a7.758,7.758,0,0,1-7.919-7.568V29a7.758,7.758,0,0,1,7.919-7.568h30.3A7.758,7.758,0,0,1,49.966,29V51.634A7.758,7.758,0,0,1,42.047,59.2H30.337A1.9,1.9,0,0,0,28.5,60.512c-.186.6-1.728,5.913.484,9.553a6.542,6.542,0,0,1-2.374-1.056C24.617,67.562,23.48,64.841,23.237,60.921Zm0,0" fill="#2557e0"/><path d="M230.327,477.655h9.746a1.827,1.827,0,1,0,0-3.655h-9.746a1.827,1.827,0,1,0,0,3.655Zm0,0" transform="translate(-169.2 -358.511)" fill="#2557e0"/><path d="M80.878,129.057c0-4.249-3.024-7.577-6.883-7.577a8.008,8.008,0,0,0-5.056,1.8,8.008,8.008,0,0,0-5.056-1.8c-3.859,0-6.883,3.328-6.883,7.577,0,2.7,1.376,7.944,10.6,12.8a2.879,2.879,0,0,0,2.685,0C79.5,137,80.878,131.754,80.878,129.057Zm-20.223,0c0-1.9,1.132-3.922,3.228-3.922a4.4,4.4,0,0,1,3.177,1.36,2.647,2.647,0,0,0,3.758,0,4.4,4.4,0,0,1,3.177-1.36c2.1,0,3.228,2.021,3.228,3.922,0,3.116-3.013,6.52-8.284,9.376C63.668,135.577,60.655,132.173,60.655,129.057Zm0,0" transform="translate(-41.112 -91.882)" fill="#2557e0"/><path d="M197.067,138.587H181.839V122.011a1.89,1.89,0,0,0-3.78,0v16.576H167.114a11.49,11.49,0,0,0-11.606,11.342V172.8a11.49,11.49,0,0,0,11.606,11.343h10.064c.285,1.626.447,4.055-.468,5.5a2.763,2.763,0,0,1-2.016,1.245,2.084,2.084,0,0,0-.078,4.1,16.212,16.212,0,0,0,3.327.357h.115v6.282H110.28v-8.66a1.89,1.89,0,0,0-3.78,0v14.446a9.353,9.353,0,0,0,9.449,9.234H172.39a9.354,9.354,0,0,0,9.449-9.234V194.752a9.958,9.958,0,0,0,2.814-1.45c2.553-1.891,4.117-4.968,4.661-9.161h7.752A11.49,11.49,0,0,0,208.673,172.8V149.929A11.49,11.49,0,0,0,197.067,138.587Zm-19.008,68.828a5.612,5.612,0,0,1-5.669,5.54H115.949a5.612,5.612,0,0,1-5.669-5.54v-2.093h67.78ZM204.894,172.8a7.748,7.748,0,0,1-7.827,7.649h-9.475a1.871,1.871,0,0,0-1.886,1.737c-.241,3.962-1.363,6.713-3.337,8.174a6.4,6.4,0,0,1-2.346,1.068c2.186-3.679.662-9.047.478-9.654a1.884,1.884,0,0,0-1.812-1.324H167.114a7.748,7.748,0,0,1-7.827-7.649V149.929a7.748,7.748,0,0,1,7.827-7.649h29.953a7.748,7.748,0,0,1,7.827,7.649Zm0,0" transform="translate(-78.673 -90.886)" fill="#2557e0"/><path d="M379.758,239.854a6.944,6.944,0,1,0-10.806,0A9.265,9.265,0,0,0,364,248.045v.162a4.475,4.475,0,0,0,4.47,4.469h11.77a4.475,4.475,0,0,0,4.469-4.469v-.162A9.265,9.265,0,0,0,379.758,239.854Zm-5.4-7.644a3.289,3.289,0,1,1-3.289,3.289A3.293,3.293,0,0,1,374.355,232.209Zm6.7,16a.816.816,0,0,1-.816.815h-11.77a.816.816,0,0,1-.815-.815v-.162a5.608,5.608,0,0,1,5.6-5.6h2.2a5.608,5.608,0,0,1,5.6,5.6Zm0,0" transform="translate(-270.06 -172.868)" fill="#2557e0"/><path d="M262.263,92.648H236.437a1.827,1.827,0,0,0,0,3.655h25.827a1.827,1.827,0,0,0,0-3.655Zm0,0" transform="translate(-173.496 -70.075)" fill="#2557e0"/><path d="M262.263,122.648H236.437a1.827,1.827,0,0,0,0,3.655h25.827a1.827,1.827,0,1,0,0-3.655Zm0,0" transform="translate(-173.496 -92.765)" fill="#2557e0"/><path d="M264.091,154.476a1.828,1.828,0,0,0-1.827-1.827H236.437a1.827,1.827,0,0,0,0,3.655h25.827A1.828,1.828,0,0,0,264.091,154.476Zm0,0" transform="translate(-173.496 -115.456)" fill="#2557e0"/><path d="M182.571,306.155a1.828,1.828,0,0,0-1.827-1.827H154.917a1.827,1.827,0,0,0-1.827,1.827v7.309a1.827,1.827,0,0,0,1.827,1.827h25.827a1.828,1.828,0,0,0,1.827-1.827Zm-3.655,5.482H156.745v-3.655h22.172Zm0,0" transform="translate(-112.516 -230.179)" fill="#2557e0"/><path d="M180.744,364.328H154.917a1.827,1.827,0,1,0,0,3.655h25.827a1.827,1.827,0,1,0,0-3.655Zm0,0" transform="translate(-112.516 -275.56)" fill="#2557e0"/></g></g></svg>