<svg xmlns="http://www.w3.org/2000/svg" width="3363.718" height="675.849" viewBox="0 0 3363.718 675.849"><g transform="translate(45.004 151.634)"><g transform="translate(0 -170.598)"><path d="M-102.836,510.769l315.329-4.131L349.775,483.76l438.03-95.406,415.082,61.25,523.272-135.878,524.891-14.954,547.866-129.027,416.962-326.6-27.116,665.435Z" transform="translate(102.836 175.821)" fill="#fff"/></g><g transform="translate(95.073 -147.999)"><g transform="translate(-140.016)"><path d="M0,520.135l398.2-12.21L928.764,392.9l421.192,60.206,525.611-138,528.811-15.219,550.875-130.1L3360-150.08" transform="translate(0 150.08)" fill="none" stroke="#2557e0" stroke-width="4" fill-rule="evenodd"/><path d="M11.262,0A11.262,11.262,0,1,1,0,11.262,11.262,11.262,0,0,1,11.262,0Z" transform="translate(381.476 642.69)" fill="#f9f9fb" stroke="#2557e0" stroke-width="4"/><path d="M11.262,0A11.262,11.262,0,1,1,0,11.262,11.262,11.262,0,0,1,11.262,0Z" transform="translate(914 533.705)" fill="#f9f9fb" stroke="#2557e0" stroke-width="4"/><circle cx="11.262" cy="11.262" r="11.262" transform="translate(1339.097 592.035)" fill="#f9f9fb" stroke="#2557e0" stroke-width="4"/><path d="M11.262,0A11.262,11.262,0,1,1,0,11.262,11.262,11.262,0,0,1,11.262,0Z" transform="translate(1861.118 454.878)" fill="#f9f9fb" stroke="#2557e0" stroke-width="4"/><circle cx="11.262" cy="11.262" r="11.262" transform="translate(2385.408 438.913)" fill="#f9f9fb" stroke="#2557e0" stroke-width="4"/><circle cx="11.262" cy="11.262" r="11.262" transform="translate(2936.98 310.72)" fill="#f9f9fb" stroke="#2557e0" stroke-width="4"/></g></g><path transform="translate(223.759 4.584)" fill="#d8d8d8" stroke="#000" stroke-width="1"/></g></svg>