<svg xmlns="http://www.w3.org/2000/svg" width="128" height="127.012" viewBox="0 0 128 127.012"><g transform="translate(527 -566.026)"><g transform="translate(-527 566.026)"><g transform="translate(0 28.127)"><g transform="translate(0)"><path d="M27.338,177.241A10.348,10.348,0,0,0,15.4,175.3a57.962,57.962,0,0,1,.118-66.574,2.441,2.441,0,0,0-3.976-2.833,62.525,62.525,0,0,0,.12,72.572,10.341,10.341,0,1,0,15.672-1.225Zm-3.452,11.172a5.46,5.46,0,1,1,0-7.721A5.466,5.466,0,0,1,23.886,188.413Z" transform="translate(0 -104.869)" fill="#2557e0"/></g></g><g transform="translate(35.427 12.552)"><g transform="translate(0 0)"><path d="M203.889,153.105a2.4,2.4,0,0,0-3.407-.564,56.116,56.116,0,0,1-23.313,10.2,6.57,6.57,0,0,1-5.505-1.486,6.894,6.894,0,0,1-2.392-5.25V137.628h.213a5.2,5.2,0,0,0,5.125-5.264v-4.232a22.585,22.585,0,0,0,14.156-21.085V95.179a9.576,9.576,0,0,0-1.22-18.629V60.924a7.325,7.325,0,1,0-14.644,0V76.465H160.7V60.924a7.325,7.325,0,1,0-14.644,0V76.55a9.576,9.576,0,0,0-1.22,18.629v11.868a22.585,22.585,0,0,0,14.156,21.085v4.232a5.2,5.2,0,0,0,5.125,5.264h.275V156a11.95,11.95,0,0,0,4.145,9.1,11.334,11.334,0,0,0,9.507,2.569,60.894,60.894,0,0,0,25.3-11.065A2.551,2.551,0,0,0,203.889,153.105ZM177.783,60.924a2.442,2.442,0,1,1,4.881,0V76.465h-4.881Zm-26.847,0a2.442,2.442,0,1,1,4.881,0V76.465h-4.881Zm-8.054,25.067a4.459,4.459,0,0,1,4.393-4.512h39.051a4.514,4.514,0,0,1,0,9.024H147.275A4.459,4.459,0,0,1,142.882,85.991Zm6.834,21.056V95.516h34.169v11.531a17.091,17.091,0,1,1-34.169,0Zm17.177,25.568c-.02,0-.041,0-.061,0s-.041,0-.061,0h-2.654a.248.248,0,0,1-.245-.251v-2.958a21.435,21.435,0,0,0,5.858,0v2.958a.248.248,0,0,1-.244.251Z" transform="translate(-138 -53.404)" fill="#2557e0"/></g></g><g transform="translate(105.528 105.37)"><path d="M424.039,422.008a2.441,2.441,0,0,0-3.4.067l-.055.057a2.441,2.441,0,0,0,3.518,3.383l.055-.057A2.441,2.441,0,0,0,424.039,422.008Z" transform="translate(-419.927 -421.352)" fill="#2557e0"/></g><g transform="translate(28.314 0)"><g transform="translate(0 0)"><path d="M203.083,59.755a62.618,62.618,0,0,0-98.488-46.37,2.441,2.441,0,1,0,2.818,3.986C130.08,1.347,161.929,4.019,181.5,23.589a57.264,57.264,0,0,1,5.814,74.675,2.441,2.441,0,1,0,3.94,2.881A62.486,62.486,0,0,0,203.083,59.755Z" transform="translate(-103.563 -1.976)" fill="#2557e0"/></g></g><g transform="translate(17.257 17.737)"><path d="M74.9,75.355a2.441,2.441,0,0,0-3.452.015l-.04.041a2.441,2.441,0,0,0,3.467,3.436l.04-.041A2.441,2.441,0,0,0,74.9,75.355Z" transform="translate(-70.706 -74.647)" fill="#2557e0"/></g><g transform="translate(58.165 56.266)"><path d="M243.429,235.129a2.441,2.441,0,0,0-2.109-1.212h-1.744l3.212-4.058a2.441,2.441,0,0,0-3.827-3.03l-6.344,8.013a2.441,2.441,0,0,0,1.914,3.956h2.6l-2.989,5.277a2.441,2.441,0,1,0,4.248,2.406l5.052-8.921A2.44,2.44,0,0,0,243.429,235.129Z" transform="translate(-232.091 -225.904)" fill="#2557e0"/></g></g></g></svg>