<svg xmlns="http://www.w3.org/2000/svg" width="128" height="128.003" viewBox="0 0 128 128.003"><g transform="translate(0 0)"><g transform="translate(13.543 0)"><g transform="translate(0 0)"><path d="M167.2.328a2.5,2.5,0,0,0-2.51.019l-45.8,27.079a2.5,2.5,0,1,0,2.544,4.3L154.292,12.3l-61.2,63.5L62.647,66.487,102.374,43a2.5,2.5,0,1,0-2.544-4.3l-44.6,26.373a2.5,2.5,0,0,0,.541,4.541L92.121,80.73l16.038,29.19a.593.593,0,0,0,.052.078,2.492,2.492,0,0,0,3.885.505l18.442-18.022,34.689,10.612a2.5,2.5,0,0,0,3.23-2.389V2.5A2.5,2.5,0,0,0,167.2.328ZM108.3,82.27a2.5,2.5,0,0,0-.445,1.423V98.979L96.9,79.046l48.462-50.28Zm4.554,20.51V87.071l12.243,3.745Zm50.61-5.454L114.352,82.3l49.106-70.884Z" transform="translate(-53.999 0)" fill="#2557e0"/></g></g><g transform="translate(13.543 86.031)"><path d="M81.692,345.383a2.508,2.508,0,0,0-3.547,0L54.734,368.8a2.508,2.508,0,0,0,3.547,3.547L81.692,348.93A2.508,2.508,0,0,0,81.692,345.383Z" transform="translate(-53.999 -344.648)" fill="#2557e0"/></g><g transform="translate(0 117.218)"><g transform="translate(0)"><path d="M10.05,469.735a2.509,2.509,0,0,0-3.547,0L.735,475.5a2.508,2.508,0,1,0,3.547,3.547l5.768-5.768A2.508,2.508,0,0,0,10.05,469.735Z" transform="translate(0 -469.001)" fill="#2557e0"/></g></g><g transform="translate(31.391 122.839)"><path d="M129.861,492.145a2.506,2.506,0,1,0,.735,1.773A2.526,2.526,0,0,0,129.861,492.145Z" transform="translate(-125.58 -491.41)" fill="#2557e0"/></g><g transform="translate(37.615 104.178)"><path d="M167.216,417.741a2.508,2.508,0,0,0-3.547,0l-12.4,12.4a2.508,2.508,0,1,0,3.547,3.547l12.4-12.4A2.508,2.508,0,0,0,167.216,417.741Z" transform="translate(-150.534 -417.006)" fill="#2557e0"/></g><g transform="translate(80.224 103.227)"><path d="M337.769,413.945a2.508,2.508,0,0,0-3.547,0L321.788,426.38a2.508,2.508,0,1,0,3.547,3.547l12.434-12.434A2.508,2.508,0,0,0,337.769,413.945Z" transform="translate(-321.053 -413.211)" fill="#2557e0"/></g><g transform="translate(66.599 33.341)"><path d="M270.711,134.115a2.507,2.507,0,1,0,.735,1.776A2.527,2.527,0,0,0,270.711,134.115Z" transform="translate(-266.43 -133.38)" fill="#2557e0"/></g></g></svg>