<svg xmlns="http://www.w3.org/2000/svg" width="128" height="112.304" viewBox="0 0 128 112.304"><g transform="translate(0 0)"><path d="M121.6,88.152h-2.133V42.8A10.746,10.746,0,0,0,108.8,32H19.2A10.746,10.746,0,0,0,8.533,42.8v32.4H6.4A6.44,6.44,0,0,0,0,81.673v56.152A6.44,6.44,0,0,0,6.4,144.3H87.467a2.147,2.147,0,0,0,2.133-2.16,10.746,10.746,0,0,0-10.667-10.8h-6.4V118.388h25.6v19.437a6.44,6.44,0,0,0,6.4,6.479H121.6a6.44,6.44,0,0,0,6.4-6.479V94.631A6.44,6.44,0,0,0,121.6,88.152ZM46.933,137.825a2.147,2.147,0,0,1-2.133,2.16H6.4a2.147,2.147,0,0,1-2.133-2.16v-2.16H46.933Zm0-6.479H4.267V81.673A2.147,2.147,0,0,1,6.4,79.513H44.8a2.147,2.147,0,0,1,2.133,2.16Zm32,4.319a6.418,6.418,0,0,1,6.035,4.319H50.807a6.475,6.475,0,0,0,.393-2.16v-2.16ZM51.2,131.346V118.388h4.267v12.958Zm8.533,0V118.388h8.533v12.958Zm38.4-17.278H51.2V101.11H98.133Zm0-19.437v2.16H51.2V81.673a6.465,6.465,0,0,0-.73-2.939c.032-.03.075-.039.1-.071l21.12-21.381a2.178,2.178,0,0,0-.052-3.054,2.115,2.115,0,0,0-2.964,0L47.558,75.609c-.051.054-.073.123-.117.179a6.255,6.255,0,0,0-2.641-.594h-32V42.8a6.44,6.44,0,0,1,6.4-6.479h89.6a6.44,6.44,0,0,1,6.4,6.479V88.152H104.533A6.44,6.44,0,0,0,98.133,94.631Zm25.6,43.194a2.147,2.147,0,0,1-2.133,2.16H104.533a2.147,2.147,0,0,1-2.133-2.16v-2.16h21.333Zm0-6.479H102.4V94.631a2.147,2.147,0,0,1,2.133-2.16H121.6a2.147,2.147,0,0,1,2.133,2.16Z" transform="translate(0 -32)" fill="#2557e0"/><g transform="translate(12.629 69.07)"><path d="M60.475,287.651a2.109,2.109,0,0,0-2.982,0L48.546,296.6a2.109,2.109,0,1,0,2.931,3.034l.052-.052,8.947-8.947C60.851,289.981,60.094,288.741,60.475,287.651Z" transform="translate(-47.902 -287.034)" fill="#2557e0"/></g><g transform="translate(25.608 69.096)"><path d="M108.423,287.723a2.109,2.109,0,0,0-2.931,0l-8.947,8.947a2.109,2.109,0,1,0,2.931,3.034l.052-.052,8.947-8.947A2.109,2.109,0,0,0,108.423,287.723Z" transform="translate(-95.902 -287.131)" fill="#2557e0"/></g><g transform="translate(60.089 21.774)"><path d="M249.156,112.69a2.109,2.109,0,0,0-2.931,0l-20.88,20.88a2.109,2.109,0,0,0,2.93,3.034l.052-.052,20.88-20.88A2.109,2.109,0,0,0,249.156,112.69Z" transform="translate(-224.702 -112.098)" fill="#2557e0"/></g><g transform="translate(108.119 74.901)"><path d="M414.129,309.378a2.109,2.109,0,0,0-2.931,0l-5.964,5.964a2.109,2.109,0,0,0,2.931,3.034l.052-.052,5.964-5.964A2.109,2.109,0,0,0,414.129,309.378Z" transform="translate(-404.59 -308.786)" fill="#2557e0"/></g><g transform="translate(61.923 73.499)"><path d="M234.24,304h-.021a2.12,2.12,0,1,0,.021,0Z" transform="translate(-232.12 -304)" fill="#2557e0"/></g><g transform="translate(57.673 8.436)"><path d="M226.545,64h-8.436a2.109,2.109,0,0,0,0,4.218h8.436a2.109,2.109,0,0,0,0-4.218Z" transform="translate(-216 -64)" fill="#2557e0"/></g></g></svg>