<svg xmlns="http://www.w3.org/2000/svg" width="128" height="128" viewBox="0 0 128 128"><path d="M19,45a4,4,0,1,0-4-4A4,4,0,0,0,19,45Zm0-6a2,2,0,1,1-2,2A2,2,0,0,1,19,39Z" transform="translate(19.615 48.385)" fill="#2557e0"/><path d="M44,12a4,4,0,1,0,4,4A4,4,0,0,0,44,12Zm0,6a2,2,0,1,1,2-2A2,2,0,0,1,44,18Z" transform="translate(52.308 15.692)" fill="#2557e0"/><path d="M19,49a8,8,0,1,0-8-8A8.009,8.009,0,0,0,19,49Zm0-14a6,6,0,1,1-6,6A6.006,6.006,0,0,1,19,35Z" transform="translate(17 51)" fill="#2557e0"/><path d="M126.266,78.748q.384-1.622.683-3.273c.011-.058.026-.113.036-.171,0-.013,0-.026,0-.038a63.72,63.72,0,0,0-4-36.1c-.013-.034-.013-.073-.028-.107a63.8,63.8,0,0,0-9.905-16.109,64.577,64.577,0,0,0-7.863-7.883A63.738,63.738,0,0,0,88.939,5.045a.8.8,0,0,0-.1-.026A63.723,63.723,0,0,0,53.124.943h-.017c-.06.011-.119.023-.181.036-.864.151-1.724.316-2.575.5-.047.011-.094.023-.143.034a63.4,63.4,0,0,0-9.89,3.049c-.292.117-.589.226-.879.348-.478.2-.945.414-1.417.623s-.922.407-1.378.623c-.371.177-.738.363-1.105.546l-.307.151c-.028.013-.06.013-.09.028-.128.064-.25.137-.378.2-.3.154-.593.314-.89.471-.262.141-.523.284-.783.429-.3.169-.61.329-.911.5-.356.2-.7.42-1.056.631-.183.111-.365.22-.546.333q-1.114.682-2.2,1.41c-.075.049-.149.1-.222.149-.38.256-.759.51-1.133.774-.049.034-.1.073-.147.109q-1.194.851-2.349,1.758c-.026.019-.051.036-.075.055-.006,0-.009.011-.013.015A64.129,64.129,0,0,0,14.8,23.081a1.317,1.317,0,0,0-.09.149A63.839,63.839,0,0,0,2.705,82.385c0,.015,0,.032,0,.047.021.068.047.132.066.2.354,1.161.734,2.31,1.152,3.441.147.4.316.8.471,1.195.258.661.518,1.321.8,1.969.286.668.589,1.323.9,1.978.145.305.288.61.437.911A63.688,63.688,0,0,0,35.9,121.485c.286.141.576.277.864.414.668.314,1.338.623,2.018.913.619.267,1.246.512,1.875.759.429.169.851.35,1.286.508,1.12.412,2.259.789,3.407,1.139.075.023.145.051.222.075.026.009.053,0,.079.011a63.8,63.8,0,0,0,47.9-4.561c.058-.023.117-.036.175-.066.156-.081.3-.175.457-.256.518-.279,1.026-.574,1.536-.866.478-.273.962-.538,1.431-.823q1.35-.819,2.656-1.707c.373-.252.732-.523,1.1-.783.58-.412,1.158-.823,1.724-1.254.318-.243.629-.493.943-.74q.944-.742,1.858-1.519.342-.291.678-.589,1.114-.973,2.178-2c.083-.081.169-.158.252-.241,1.028-1,2.031-2.025,2.991-3.089.032-.032.079-.045.109-.081A63.687,63.687,0,0,0,122.912,89c.1-.235.19-.474.286-.708.23-.559.465-1.114.681-1.681.009-.021,0-.045.011-.066a63.446,63.446,0,0,0,2.327-7.578C126.234,78.895,126.249,78.82,126.266,78.748Zm-21.647,29c-.533.5-1.082.979-1.634,1.457-.209.181-.416.367-.629.546-.433.367-.879.719-1.325,1.071-.341.271-.678.544-1.026.806s-.689.508-1.037.759c-.324.235-.649.467-.977.7A10.065,10.065,0,0,0,89.7,100.956l-2.231-.346V96.819l2.121-.405A10.059,10.059,0,0,0,95.8,80.587l-1.335-1.82,2.682-2.684,2.733,1.854a10.059,10.059,0,0,0,15.518-6.43l.623-3.241h3.791l.343,2.231a9.875,9.875,0,0,0,2.426,5.15,58.633,58.633,0,0,1-2.1,7.708,13.848,13.848,0,0,0-13.3,21.835c-.757.8-1.53,1.577-2.332,2.33C104.774,107.595,104.7,107.671,104.619,107.744ZM118.029,89.4a60.463,60.463,0,0,1-7.927,12.493,9.6,9.6,0,0,1,8.3-14.421c.162,0,.322,0,.482.013-.241.559-.48,1.118-.736,1.668C118.108,89.231,118.067,89.312,118.029,89.4ZM93.867,59.733A25.6,25.6,0,0,1,87.859,9.254a59.837,59.837,0,0,1,11.669,6.761c.07.053.143.1.213.156.587.439,1.156.9,1.726,1.357.183.147.373.29.555.439.427.354.841.723,1.257,1.088.3.265.612.521.911.794.158.145.309.3.467.444q1.626,1.514,3.136,3.14c.117.126.239.245.356.373.282.309.55.634.826.949.354.405.715.8,1.058,1.22.156.188.3.384.457.576.454.563.907,1.126,1.34,1.7.06.079.115.162.175.243a59.779,59.779,0,0,1,6.746,11.648A25.711,25.711,0,0,1,93.867,59.733ZM49.553,6.046a8.488,8.488,0,0,0,6.7,10.063l1.348.258v2.317l-1.423.218a8.471,8.471,0,0,0-5.726,13.124l.77,1.139L49.583,34.8l-.378-.277a8.472,8.472,0,0,0-13.385,5.542l-.073.467H33.434l-.26-1.348A8.472,8.472,0,0,0,19.844,33.95l-1.161.851-1.638-1.634.77-1.139A8.321,8.321,0,0,0,18.9,24.9c.213-.245.422-.495.638-.736.544-.608,1.105-1.2,1.673-1.781.587-.6,1.188-1.193,1.8-1.771.284-.267.574-.527.862-.787A10.641,10.641,0,1,0,40.945,8.9q1.958-.819,3.979-1.493l.414-.141C46.726,6.812,48.13,6.4,49.553,6.046ZM27.755,16.58c.173-.132.337-.271.512-.4.858-.64,1.743-1.246,2.635-1.843.431-.288.855-.587,1.293-.862.055-.036.111-.073.166-.107.9-.565,1.83-1.086,2.761-1.6.407-.226.806-.469,1.218-.685a6.39,6.39,0,1,1-8.606,5.984C27.733,16.907,27.742,16.745,27.755,16.58Zm.228,39.134c.062-.019.126-.011.188-.036s.126-.09.2-.126a34.157,34.157,0,0,1,43.411,45.673c-.019.036-.053.06-.07.1s-.015.1-.032.145a33.906,33.906,0,0,1-25.346,19.6l-.017,0c-1.052-.324-2.084-.687-3.11-1.067-.48-.177-.951-.373-1.425-.563q-.736-.294-1.463-.6c-.634-.275-1.265-.559-1.888-.855-.228-.109-.454-.222-.683-.333a60.127,60.127,0,0,1-27.39-27.394c-.109-.222-.218-.444-.324-.668-.3-.625-.582-1.259-.86-1.9-.209-.484-.407-.973-.6-1.463-.19-.471-.384-.943-.561-1.421-.38-1.028-.742-2.065-1.069-3.119,0,0,0-.006,0-.011A33.9,33.9,0,0,1,27.983,55.714Zm26.891,67.322a38.023,38.023,0,0,0,19.84-18.044l3.351,1.489a2.1,2.1,0,0,0,.868.186,2.133,2.133,0,0,0,.868-4.083L76.465,101.1a38.665,38.665,0,0,0,2.468-13.634,38.21,38.21,0,0,0-1.911-11.9l2.684-1.043a2.132,2.132,0,1,0-1.545-3.974l-2.7,1.05A38.6,38.6,0,0,0,58.039,53.331l1.51-3.4a2.134,2.134,0,1,0-3.9-1.732l-1.513,3.4a38.12,38.12,0,0,0-13.6-2.537,38.65,38.65,0,0,0-11.906,1.9l-1.039-2.673a2.133,2.133,0,0,0-3.977,1.547l1.033,2.654A38.034,38.034,0,0,0,4.964,73.129,59.941,59.941,0,0,1,4.267,64,59.339,59.339,0,0,1,12.3,34.133a2.05,2.05,0,0,0,.48.8l4.177,4.175a2.129,2.129,0,0,0,2.769.213l2.637-1.933a4.206,4.206,0,0,1,6.618,2.6l.593,3.078A2.134,2.134,0,0,0,31.671,44.8h5.907a2.132,2.132,0,0,0,2.108-1.809l.35-2.272a4.208,4.208,0,0,1,6.645-2.752l1.854,1.359a2.129,2.129,0,0,0,2.769-.213l4.177-4.175a2.133,2.133,0,0,0,.258-2.705l-1.76-2.6a4.205,4.205,0,0,1,2.842-6.517l3.232-.5a2.133,2.133,0,0,0,1.813-2.108V14.6a2.132,2.132,0,0,0-1.732-2.095l-3.078-.591a4.126,4.126,0,0,1-3.121-2.594A4.131,4.131,0,0,1,54.455,5.3l.224-.3A59.78,59.78,0,0,1,81.632,6.925a29.789,29.789,0,0,0-7.294,4.661L72.749,10a2.133,2.133,0,0,0-3.017,3.017l1.6,1.6A29.876,29.876,0,0,0,64.094,32H61.867a2.133,2.133,0,0,0,0,4.267h2.242a29.693,29.693,0,0,0,7.213,17.4l-1.589,1.589a2.133,2.133,0,1,0,3.017,3.017l1.589-1.589a29.7,29.7,0,0,0,17.4,7.213v2.244a2.133,2.133,0,0,0,4.267,0V63.906a29.876,29.876,0,0,0,17.38-7.243l1.6,1.6A2.133,2.133,0,1,0,118,55.251l-1.589-1.589a29.86,29.86,0,0,0,4.663-7.294A59.539,59.539,0,0,1,123.733,64c0,.55-.028,1.094-.043,1.643A2.117,2.117,0,0,0,121.641,64h-7.383a2.132,2.132,0,0,0-2.095,1.732l-.956,4.973a5.79,5.79,0,0,1-8.934,3.7L98.08,71.563a2.136,2.136,0,0,0-2.705.258l-5.22,5.222a2.137,2.137,0,0,0-.213,2.771l2.417,3.3a5.791,5.791,0,0,1-3.575,9.111l-3.851.74A2.131,2.131,0,0,0,83.2,95.057v7.386a2.133,2.133,0,0,0,1.809,2.108l4.041.621a5.791,5.791,0,0,1,3.915,8.973l-2.187,3.228a59.662,59.662,0,0,1-35.9,5.664Z" fill="#2557e0"/></svg>